name C:\Users\u0101727\Documents\MyRepositories\upper-imu-dc\Results\main_tracking\Case_45\FLX01_angularVelocities_bodyFrame.mot
datacolumns 4
datarows 141
range 2.00600000 2.84600000
endheader 
time	radius_imu_x	radius_imu_y	radius_imu_z	
          2.00600000	         -1.39540599	          0.16595800	          0.25184498	
          2.01200000	         -1.38524927	          0.18481561	          0.21499618	
          2.01800000	         -1.37440339	          0.20269525	          0.17926345	
          2.02400000	         -1.36287707	          0.21943752	          0.14472341	
          2.03000000	         -1.35068768	          0.23490135	          0.11144246	
          2.03600000	         -1.33786087	          0.24896524	          0.07947631	
          2.04200000	         -1.32443052	          0.26152946	          0.04886965	
          2.04800000	         -1.31043864	          0.27251858	          0.01965595	
          2.05400000	         -1.29593518	          0.28188382	         -0.00814268	
          2.06000000	         -1.28097778	          0.28960589	         -0.03451557	
          2.06600000	         -1.26563146	          0.29569741	         -0.05946364	
          2.07200000	         -1.24996803	          0.30020488	         -0.08299956	
          2.07800000	         -1.23406525	          0.30321003	         -0.10514787	
          2.08400000	         -1.21800561	          0.30483004	         -0.12594493	
          2.09000000	         -1.20187503	          0.30521538	         -0.14543886	
          2.09600000	         -1.18576109	          0.30454807	         -0.16368897	
          2.10200000	         -1.16975071	          0.30303612	         -0.18076489	
          2.10800000	         -1.15392807	          0.30090641	         -0.19674528	
          2.11400000	         -1.13837221	          0.29839828	         -0.21171615	
          2.12000000	         -1.12315477	          0.29575336	         -0.22576888	
          2.12600000	         -1.10833814	          0.29320794	         -0.23899816	
          2.13200000	         -1.09397387	          0.29098231	         -0.25149985	
          2.13800000	         -1.08010174	          0.28927141	         -0.26336905	
          2.14400000	         -1.06674946	          0.28823958	         -0.27469851	
          2.15000000	         -1.05393299	          0.28801590	         -0.28557736	
          2.15600000	         -1.04165731	          0.28869250	         -0.29609006	
          2.16200000	         -1.02991763	          0.29032543	         -0.30631561	
          2.16800000	         -1.01870074	          0.29293723	         -0.31632681	
          2.17400000	         -1.00798638	          0.29652006	         -0.32618952	
          2.18000000	         -0.99774853	          0.30104024	         -0.33596191	
          2.18600000	         -0.98795663	          0.30644166	         -0.34569373	
          2.19200000	         -0.97857661	          0.31265007	         -0.35542556	
          2.19800000	         -0.96957180	          0.31957703	         -0.36518819	
          2.20400000	         -0.96090377	          0.32712242	         -0.37500236	
          2.21000000	         -0.95253321	          0.33517820	         -0.38487878	
          2.21600000	         -0.94442069	          0.34363117	         -0.39481869	
          2.22200000	         -0.93652755	          0.35236758	         -0.40481488	
          2.22800000	         -0.92881677	          0.36127794	         -0.41485326	
          2.23400000	         -0.92125349	          0.37026067	         -0.42491456	
          2.24000000	         -0.91380556	          0.37922653	         -0.43497632	
          2.24600000	         -0.90644352	          0.38810131	         -0.44501474	
          2.25200000	         -0.89914044	          0.39682820	         -0.45500637	
          2.25800000	         -0.89187136	          0.40536888	         -0.46492949	
          2.26400000	         -0.88461255	          0.41370299	         -0.47476488	
          2.27000000	         -0.87734059	          0.42182634	         -0.48449612	
          2.27600000	         -0.87003160	          0.42974869	         -0.49410946	
          2.28200000	         -0.86266047	          0.43748955	         -0.50359316	
          2.28800000	         -0.85520028	          0.44507348	         -0.51293666	
          2.29400000	         -0.84762224	          0.45252587	         -0.52212948	
          2.30000000	         -0.83989577	          0.45986778	         -0.53116009	
          2.30600000	         -0.83198906	          0.46711190	         -0.54001489	
          2.31200000	         -0.82386982	          0.47425827	         -0.54867723	
          2.31800000	         -0.81550626	          0.48129104	         -0.55712677	
          2.32400000	         -0.80686842	          0.48817699	         -0.56533915	
          2.33000000	         -0.79792945	          0.49486557	         -0.57328611	
          2.33600000	         -0.78866697	          0.50128988	         -0.58093606	
          2.34200000	         -0.77906432	          0.50737032	         -0.58825503	
          2.34800000	         -0.76911166	          0.51301928	         -0.59520800	
          2.35400000	         -0.75880667	          0.51814541	         -0.60176037	
          2.36000000	         -0.74815498	          0.52265938	         -0.60787949	
          2.36600000	         -0.73717028	          0.52647809	         -0.61353604	
          2.37200000	         -0.72587416	          0.52952974	         -0.61870535	
          2.37800000	         -0.71429586	          0.53175810	         -0.62336827	
          2.38400000	         -0.70247173	          0.53312484	         -0.62751168	
          2.39000000	         -0.69044465	          0.53361142	         -0.63112859	
          2.39600000	         -0.67826338	          0.53321980	         -0.63421784	
          2.40200000	         -0.66598172	          0.53197156	         -0.63678352	
          2.40800000	         -0.65365763	          0.52990637	         -0.63883414	
          2.41400000	         -0.64135228	          0.52707994	         -0.64038179	
          2.42000000	         -0.62912896	          0.52356087	         -0.64144141	
          2.42600000	         -0.61705206	          0.51942818	         -0.64202999	
          2.43200000	         -0.60518576	          0.51476740	         -0.64216604	
          2.43800000	         -0.59359284	          0.50966667	         -0.64186913	
          2.44400000	         -0.58233353	          0.50421384	         -0.64115962	
          2.45000000	         -0.57146435	          0.49849258	         -0.64005850	
          2.45600000	         -0.56103701	          0.49257966	         -0.63858736	
          2.46200000	         -0.55109748	          0.48654166	         -0.63676843	
          2.46800000	         -0.54168499	          0.48043220	         -0.63462461	
          2.47400000	         -0.53283137	          0.47429072	         -0.63217972	
          2.48000000	         -0.52456046	          0.46814162	         -0.62945856	
          2.48600000	         -0.51688778	          0.46199454	         -0.62648723	
          2.49200000	         -0.50982038	          0.45584602	         -0.62329329	
          2.49800000	         -0.50335690	          0.44968201	         -0.61990600	
          2.50400000	         -0.49748799	          0.44348059	         -0.61635634	
          2.51000000	         -0.49219685	          0.43721566	         -0.61267702	
          2.51600000	         -0.48746003	          0.43085985	         -0.60890214	
          2.52200000	         -0.48324841	          0.42438803	         -0.60506670	
          2.52800000	         -0.47952836	          0.41778039	         -0.60120580	
          2.53400000	         -0.47626289	          0.41102440	         -0.59735384	
          2.54000000	         -0.47341287	          0.40411665	         -0.59354351	
          2.54600000	         -0.47093823	          0.39706388	         -0.58980484	
          2.55200000	         -0.46879900	          0.38988329	         -0.58616431	
          2.55800000	         -0.46695635	          0.38260228	         -0.58264410	
          2.56400000	         -0.46537328	          0.37525772	         -0.57926161	
          2.57000000	         -0.46401524	          0.36789458	         -0.57602923	
          2.57600000	         -0.46285061	          0.36056475	         -0.57295442	
          2.58200000	         -0.46185093	          0.35332484	         -0.57004011	
          2.58800000	         -0.46099112	          0.34623399	         -0.56728533	
          2.59400000	         -0.46024952	          0.33935202	         -0.56468599	
          2.60000000	         -0.45960787	          0.33273690	         -0.56223579	
          2.60600000	         -0.45905124	          0.32644298	         -0.55992719	
          2.61200000	         -0.45856781	          0.32051852	         -0.55775219	
          2.61800000	         -0.45814853	          0.31500356	         -0.55570309	
          2.62400000	         -0.45778676	          0.30992873	         -0.55377296	
          2.63000000	         -0.45747767	          0.30531394	         -0.55195596	
          2.63600000	         -0.45721768	          0.30116789	         -0.55024748	
          2.64200000	         -0.45700373	          0.29748796	         -0.54864417	
          2.64800000	         -0.45683240	          0.29426070	         -0.54714378	
          2.65400000	         -0.45669936	          0.29146275	         -0.54574516	
          2.66000000	         -0.45659858	          0.28906235	         -0.54444816	
          2.66600000	         -0.45652191	          0.28702066	         -0.54325354	
          2.67200000	         -0.45645861	          0.28529366	         -0.54216298	
          2.67800000	         -0.45639519	          0.28383382	         -0.54117903	
          2.68400000	         -0.45631544	          0.28259141	         -0.54030505	
          2.69000000	         -0.45620070	          0.28151589	         -0.53954520	
          2.69600000	         -0.45603024	          0.28055691	         -0.53890435	
          2.70200000	         -0.45578191	          0.27966563	         -0.53838795	
          2.70800000	         -0.45543281	          0.27879597	         -0.53800197	
          2.71400000	         -0.45495993	          0.27790565	         -0.53775260	
          2.72000000	         -0.45434085	          0.27695744	         -0.53764607	
          2.72600000	         -0.45355420	          0.27591992	         -0.53768818	
          2.73200000	         -0.45258021	          0.27476821	         -0.53788380	
          2.73800000	         -0.45140102	          0.27348409	         -0.53823617	
          2.74400000	         -0.45000097	          0.27205572	         -0.53874620	
          2.75000000	         -0.44836673	          0.27047682	         -0.53941172	
          2.75600000	         -0.44648742	          0.26874585	         -0.54022681	
          2.76200000	         -0.44435463	          0.26686477	         -0.54118128	
          2.76800000	         -0.44196242	          0.26483792	         -0.54226040	
          2.77400000	         -0.43930725	          0.26267140	         -0.54344479	
          2.78000000	         -0.43638794	          0.26037239	         -0.54471073	
          2.78600000	         -0.43320548	          0.25794895	         -0.54603049	
          2.79200000	         -0.42976289	          0.25540986	         -0.54737304	
          2.79800000	         -0.42606502	          0.25276450	         -0.54870485	
          2.80400000	         -0.42211830	          0.25002290	         -0.54999074	
          2.81000000	         -0.41793054	          0.24719553	         -0.55119482	
          2.81600000	         -0.41351062	          0.24429320	         -0.55228144	
          2.82200000	         -0.40886823	          0.24132666	         -0.55321615	
          2.82800000	         -0.40401351	          0.23830626	         -0.55396659	
          2.83400000	         -0.39895675	          0.23524180	         -0.55450323	
          2.84000000	         -0.39370797	          0.23214250	         -0.55479999	
          2.84600000	         -0.38827656	          0.22901703	         -0.55483465	
